<svg width="1049" height="1049" viewBox="0 0 1049 1049" fill="none" xmlns="http://www.w3.org/2000/svg">
<g clip-path="url(#clip0_444_10532)">
<rect width="1049" height="1049" rx="220" fill="#242731"/>
<g opacity="0.54" filter="url(#filter0_f_444_10532)">
<path d="M124.322 459.816C124.322 401.896 124.322 372.935 135.773 350.892C145.422 332.316 160.568 317.17 179.144 307.52C201.188 296.069 230.148 296.069 288.069 296.069H761.511C819.432 296.069 848.392 296.069 870.436 307.52C889.012 317.17 904.158 332.316 913.808 350.892C925.258 372.935 925.258 401.896 925.258 459.816V590C925.258 647.921 925.258 676.881 913.808 698.925C904.158 717.501 889.012 732.647 870.436 742.297C848.392 753.747 819.432 753.747 761.511 753.747H288.069C230.148 753.747 201.188 753.747 179.144 742.297C160.568 732.647 145.422 717.501 135.773 698.925C124.322 676.881 124.322 647.921 124.322 590V459.816Z" fill="#6D35E1"/>
</g>
<path d="M124.322 459.816C124.322 401.896 124.322 372.935 135.773 350.892C145.422 332.316 160.568 317.17 179.144 307.52C201.188 296.069 230.148 296.069 288.069 296.069H761.511C819.432 296.069 848.392 296.069 870.436 307.52C889.012 317.17 904.158 332.316 913.808 350.892C925.258 372.935 925.258 401.896 925.258 459.816V590C925.258 647.921 925.258 676.881 913.808 698.925C904.158 717.501 889.012 732.647 870.436 742.297C848.392 753.747 819.432 753.747 761.511 753.747H288.069C230.148 753.747 201.188 753.747 179.144 742.297C160.568 732.647 145.422 717.501 135.773 698.925C124.322 676.881 124.322 647.921 124.322 590V459.816Z" fill="#6D35E1"/>
<path d="M229.044 454.662V425.051C235.252 425.051 240.777 424.431 245.619 423.189C250.461 421.824 254.372 420.272 257.351 418.533C260.331 416.671 263 414.126 265.359 410.898C267.842 407.546 269.705 404.566 270.946 401.959C272.188 399.228 273.615 395.689 275.229 391.344H303.536V658.397H261.448V454.662H229.044Z" fill="white"/>
<path d="M363.552 594.334V455.407C363.552 434.053 369.077 417.54 380.126 405.87C391.176 394.199 406.943 388.364 427.429 388.364C447.914 388.364 463.619 394.199 474.545 405.87C485.594 417.54 491.119 434.053 491.119 455.407V594.334C491.119 615.689 485.594 632.201 474.545 643.871C463.619 655.542 447.914 661.377 427.429 661.377C406.943 661.377 391.176 655.542 380.126 643.871C369.077 632.201 363.552 615.689 363.552 594.334ZM405.64 596.941C405.64 614.571 412.903 623.386 427.429 623.386C441.83 623.386 449.031 614.571 449.031 596.941V452.8C449.031 435.294 441.83 426.541 427.429 426.541C412.903 426.541 405.64 435.294 405.64 452.8V596.941Z" fill="white"/>
<path d="M527.484 594.334V455.407C527.484 434.053 533.008 417.54 544.058 405.87C555.108 394.199 570.875 388.364 591.36 388.364C611.846 388.364 627.551 394.199 638.476 405.87C649.526 417.54 655.051 434.053 655.051 455.407V594.334C655.051 615.689 649.526 632.201 638.476 643.871C627.551 655.542 611.846 661.377 591.36 661.377C570.875 661.377 555.108 655.542 544.058 643.871C533.008 632.201 527.484 615.689 527.484 594.334ZM569.572 596.941C569.572 614.571 576.834 623.386 591.36 623.386C605.762 623.386 612.963 614.571 612.963 596.941V452.8C612.963 435.294 605.762 426.541 591.36 426.541C576.834 426.541 569.572 435.294 569.572 452.8V596.941Z" fill="white"/>
<path d="M691.415 594.334V455.407C691.415 434.053 696.94 417.54 707.99 405.87C719.039 394.199 734.807 388.364 755.292 388.364C775.777 388.364 791.483 394.199 802.408 405.87C813.458 417.54 818.983 434.053 818.983 455.407V594.334C818.983 615.689 813.458 632.201 802.408 643.871C791.483 655.542 775.777 661.377 755.292 661.377C734.807 661.377 719.039 655.542 707.99 643.871C696.94 632.201 691.415 615.689 691.415 594.334ZM733.503 596.941C733.503 614.571 740.766 623.386 755.292 623.386C769.694 623.386 776.895 614.571 776.895 596.941V452.8C776.895 435.294 769.694 426.541 755.292 426.541C740.766 426.541 733.503 435.294 733.503 452.8V596.941Z" fill="white"/>
<circle cx="887.119" cy="334.209" r="76.2797" fill="#FFCE73"/>
</g>
<defs>
<filter id="filter0_f_444_10532" x="-275.678" y="-103.931" width="1600.94" height="1257.68" filterUnits="userSpaceOnUse" color-interpolation-filters="sRGB">
<feFlood flood-opacity="0" result="BackgroundImageFix"/>
<feBlend mode="normal" in="SourceGraphic" in2="BackgroundImageFix" result="shape"/>
<feGaussianBlur stdDeviation="200" result="effect1_foregroundBlur_444_10532"/>
</filter>
<clipPath id="clip0_444_10532">
<rect width="1049" height="1049" rx="220" fill="white"/>
</clipPath>
</defs>
</svg>
